<?xml version="1.0" encoding="UTF-8"?> <svg xmlns="http://www.w3.org/2000/svg" width="813" height="732" viewBox="0 0 813 732" fill="none"><mask id="mask0_1454_171" style="mask-type:alpha" maskUnits="userSpaceOnUse" x="61" y="43" width="709" height="578"><path d="M326.728 565.817L311.962 590.517C287.924 630.723 229.677 630.723 205.64 590.517L70.2515 364.061C58.5498 344.488 58.5498 320.068 70.2515 300.495L205.639 74.0394C229.677 33.8331 287.924 33.8331 311.961 74.0393L326.728 98.7388C352.162 62.6825 407.194 64.0491 430.385 102.839L446.432 129.679C471.166 91.4455 527.894 92.0994 551.534 131.641L568.918 160.719L569.64 159.513C593.677 119.306 651.924 119.306 675.962 159.513L760.249 300.495C771.95 320.068 771.951 344.488 760.249 364.061L675.962 505.043C651.924 545.25 593.677 545.25 569.64 505.043L568.918 503.837L551.534 532.915C527.894 572.456 471.166 573.11 446.432 534.877L430.385 561.717C407.194 600.507 352.162 601.874 326.728 565.817Z" fill="url(#paint0_linear_1454_171)"></path></mask><g mask="url(#mask0_1454_171)"><g style="mix-blend-mode:lighten"><g filter="url(#filter0_i_1454_171)"><path d="M548.555 300.495C560.257 320.068 560.257 344.488 548.555 364.06L430.385 561.717C406.348 601.923 348.101 601.923 324.063 561.717L205.893 364.061C194.191 344.488 194.191 320.068 205.893 300.495L324.063 102.839C348.101 62.6324 406.348 62.6324 430.385 102.839L548.555 300.495Z" fill="url(#paint1_radial_1454_171)" fill-opacity="0.7"></path><path d="M548.555 300.495C560.257 320.068 560.257 344.488 548.555 364.06L430.385 561.717C406.348 601.923 348.101 601.923 324.063 561.717L205.893 364.061C194.191 344.488 194.191 320.068 205.893 300.495L324.063 102.839C348.101 62.6324 406.348 62.6324 430.385 102.839L548.555 300.495Z" fill="#1F2E7E" fill-opacity="0.2"></path></g><path d="M547.697 363.547L429.527 561.204C405.877 600.761 348.571 600.761 324.921 561.204L206.751 363.547C195.239 344.291 195.239 320.265 206.751 301.008L324.921 103.352C348.571 63.7947 405.877 63.7947 429.527 103.352L547.697 301.008C559.21 320.265 559.21 344.291 547.697 363.547Z" stroke="white" stroke-width="2"></path></g><g style="mix-blend-mode:lighten"><g filter="url(#filter1_i_1454_171)"><path d="M652.484 300.495C664.186 320.068 664.186 344.488 652.484 364.06L551.534 532.915C527.496 573.121 469.249 573.121 445.212 532.915L344.261 364.06C332.559 344.488 332.559 320.068 344.261 300.495L445.212 131.641C469.249 91.4345 527.496 91.4345 551.534 131.641L652.484 300.495Z" fill="url(#paint2_radial_1454_171)" fill-opacity="0.7"></path><path d="M652.484 300.495C664.186 320.068 664.186 344.488 652.484 364.06L551.534 532.915C527.496 573.121 469.249 573.121 445.212 532.915L344.261 364.06C332.559 344.488 332.559 320.068 344.261 300.495L445.212 131.641C469.249 91.4345 527.496 91.4345 551.534 131.641L652.484 300.495Z" fill="#1F2E7E" fill-opacity="0.2"></path></g><path d="M651.626 363.547L550.675 532.402C527.026 571.959 469.719 571.959 446.07 532.402L345.119 363.547C333.607 344.291 333.607 320.265 345.119 301.008L446.07 132.154C469.719 92.5967 527.026 92.5968 550.675 132.154L651.626 301.008C663.139 320.265 663.139 344.291 651.626 363.547Z" stroke="white" stroke-width="2"></path></g><g style="mix-blend-mode:lighten"><g filter="url(#filter2_i_1454_171)"><path d="M760.248 300.495C771.95 320.068 771.95 344.488 760.249 364.061L675.961 505.043C651.924 545.25 593.677 545.25 569.639 505.043L485.352 364.061C473.65 344.488 473.65 320.068 485.352 300.495L569.639 159.513C593.677 119.306 651.924 119.306 675.961 159.513L760.248 300.495Z" fill="url(#paint3_radial_1454_171)" fill-opacity="0.7"></path><path d="M760.248 300.495C771.95 320.068 771.95 344.488 760.249 364.061L675.961 505.043C651.924 545.25 593.677 545.25 569.639 505.043L485.352 364.061C473.65 344.488 473.65 320.068 485.352 300.495L569.639 159.513C593.677 119.306 651.924 119.306 675.961 159.513L760.248 300.495Z" fill="#1F2E7E" fill-opacity="0.2"></path></g><path d="M759.39 363.547L675.103 504.53C651.454 544.087 594.147 544.087 570.498 504.53L486.21 363.547C474.698 344.291 474.698 320.265 486.21 301.009L570.498 160.026C594.147 120.469 651.453 120.469 675.103 160.026L759.39 301.009C770.903 320.265 770.903 344.291 759.39 363.547Z" stroke="white" stroke-width="2"></path></g><g style="mix-blend-mode:lighten"><g filter="url(#filter3_i_1454_171)"><path d="M447.349 300.495C459.051 320.068 459.051 344.488 447.349 364.06L311.961 590.516C287.924 630.723 229.677 630.723 205.639 590.517L70.2514 364.06C58.5497 344.488 58.5497 320.068 70.2514 300.495L205.639 74.0392C229.677 33.8329 287.924 33.8329 311.961 74.0391L447.349 300.495Z" fill="url(#paint4_radial_1454_171)" fill-opacity="0.7"></path><path d="M447.349 300.495C459.051 320.068 459.051 344.488 447.349 364.06L311.961 590.516C287.924 630.723 229.677 630.723 205.639 590.517L70.2514 364.06C58.5497 344.488 58.5497 320.068 70.2514 300.495L205.639 74.0392C229.677 33.8329 287.924 33.8329 311.961 74.0391L447.349 300.495Z" fill="#1F2E7E" fill-opacity="0.2"></path></g><path d="M446.491 363.547L311.103 590.003C287.454 629.56 230.147 629.56 206.498 590.003L71.1097 363.547C59.5969 344.291 59.5969 320.265 71.1097 301.008L206.498 74.5523C230.147 34.9952 287.454 34.9952 311.103 74.5522L446.491 301.008C458.004 320.265 458.004 344.29 446.491 363.547Z" stroke="white" stroke-width="2"></path></g></g><defs><filter id="filter0_i_1454_171" x="182.909" y="72.6841" width="374.422" height="544.052" color-interpolation-filters="sRGB"><feFlood flood-opacity="0" result="BackgroundImageFix"></feFlood><feBlend mode="normal" in="SourceGraphic" in2="BackgroundImageFix" result="shape"></feBlend><feColorMatrix in="SourceAlpha" type="matrix" values="0 0 0 0 0 0 0 0 0 0 0 0 0 0 0 0 0 0 127 0" result="hardAlpha"></feColorMatrix><feOffset dx="-14.2081" dy="24.8641"></feOffset><feGaussianBlur stdDeviation="30.1922"></feGaussianBlur><feComposite in2="hardAlpha" operator="arithmetic" k2="-1" k3="1"></feComposite><feColorMatrix type="matrix" values="0 0 0 0 1 0 0 0 0 1 0 0 0 0 1 0 0 0 0.87 0"></feColorMatrix><feBlend mode="lighten" in2="shape" result="effect1_innerShadow_1454_171"></feBlend></filter><filter id="filter1_i_1454_171" x="321.276" y="101.486" width="339.984" height="486.448" color-interpolation-filters="sRGB"><feFlood flood-opacity="0" result="BackgroundImageFix"></feFlood><feBlend mode="normal" in="SourceGraphic" in2="BackgroundImageFix" result="shape"></feBlend><feColorMatrix in="SourceAlpha" type="matrix" values="0 0 0 0 0 0 0 0 0 0 0 0 0 0 0 0 0 0 127 0" result="hardAlpha"></feColorMatrix><feOffset dx="-14.2081" dy="24.8641"></feOffset><feGaussianBlur stdDeviation="30.1922"></feGaussianBlur><feComposite in2="hardAlpha" operator="arithmetic" k2="-1" k3="1"></feComposite><feColorMatrix type="matrix" values="0 0 0 0 1 0 0 0 0 1 0 0 0 0 1 0 0 0 0.87 0"></feColorMatrix><feBlend mode="lighten" in2="shape" result="effect1_innerShadow_1454_171"></feBlend></filter><filter id="filter2_i_1454_171" x="462.368" y="129.358" width="306.657" height="430.704" color-interpolation-filters="sRGB"><feFlood flood-opacity="0" result="BackgroundImageFix"></feFlood><feBlend mode="normal" in="SourceGraphic" in2="BackgroundImageFix" result="shape"></feBlend><feColorMatrix in="SourceAlpha" type="matrix" values="0 0 0 0 0 0 0 0 0 0 0 0 0 0 0 0 0 0 127 0" result="hardAlpha"></feColorMatrix><feOffset dx="-14.2081" dy="24.8641"></feOffset><feGaussianBlur stdDeviation="30.1922"></feGaussianBlur><feComposite in2="hardAlpha" operator="arithmetic" k2="-1" k3="1"></feComposite><feColorMatrix type="matrix" values="0 0 0 0 1 0 0 0 0 1 0 0 0 0 1 0 0 0 0.87 0"></feColorMatrix><feBlend mode="lighten" in2="shape" result="effect1_innerShadow_1454_171"></feBlend></filter><filter id="filter3_i_1454_171" x="47.2675" y="43.8843" width="408.858" height="601.651" color-interpolation-filters="sRGB"><feFlood flood-opacity="0" result="BackgroundImageFix"></feFlood><feBlend mode="normal" in="SourceGraphic" in2="BackgroundImageFix" result="shape"></feBlend><feColorMatrix in="SourceAlpha" type="matrix" values="0 0 0 0 0 0 0 0 0 0 0 0 0 0 0 0 0 0 127 0" result="hardAlpha"></feColorMatrix><feOffset dx="-14.2081" dy="24.8641"></feOffset><feGaussianBlur stdDeviation="30.1922"></feGaussianBlur><feComposite in2="hardAlpha" operator="arithmetic" k2="-1" k3="1"></feComposite><feColorMatrix type="matrix" values="0 0 0 0 1 0 0 0 0 1 0 0 0 0 1 0 0 0 0.87 0"></feColorMatrix><feBlend mode="lighten" in2="shape" result="effect1_innerShadow_1454_171"></feBlend></filter><linearGradient id="paint0_linear_1454_171" x1="-29.3827" y1="399.825" x2="1013.25" y2="288.203" gradientUnits="userSpaceOnUse"><stop offset="0.132716" stop-opacity="0"></stop><stop offset="1"></stop></linearGradient><radialGradient id="paint1_radial_1454_171" cx="0" cy="0" r="1" gradientUnits="userSpaceOnUse" gradientTransform="translate(114.812 423.701) scale(293.935 1273.26)"><stop stop-color="#949494"></stop><stop offset="0.635171" stop-color="#181818"></stop><stop offset="1" stop-color="#1D1D1D"></stop></radialGradient><radialGradient id="paint2_radial_1454_171" cx="0" cy="0" r="1" gradientUnits="userSpaceOnUse" gradientTransform="translate(259.702 415.43) scale(267.343 1158.07)"><stop stop-color="#949494"></stop><stop offset="0.635171" stop-color="#181818"></stop><stop offset="1" stop-color="#1D1D1D"></stop></radialGradient><radialGradient id="paint3_radial_1454_171" cx="0" cy="0" r="1" gradientUnits="userSpaceOnUse" gradientTransform="translate(407.103 407.426) scale(241.609 1046.59)"><stop stop-color="#949494"></stop><stop offset="0.635171" stop-color="#181818"></stop><stop offset="1" stop-color="#1D1D1D"></stop></radialGradient><radialGradient id="paint4_radial_1454_171" cx="0" cy="0" r="1" gradientUnits="userSpaceOnUse" gradientTransform="translate(-27.3497 431.971) scale(320.525 1388.44)"><stop stop-color="#949494"></stop><stop offset="0.635171" stop-color="#181818"></stop><stop offset="1" stop-color="#1D1D1D"></stop></radialGradient></defs></svg> 